<?xml version="1.0" encoding="UTF-8"?>
<svg id="Layer_2" data-name="Layer 2" xmlns="http://www.w3.org/2000/svg" viewBox="0 0 433.95 324.91">
  <defs>
    <style>
      .cls-1 {
        fill: #1f1f1f;
      }
    </style>
  </defs>
  <g id="Layer_1-2" data-name="Layer 1">
    <g>
      <path class="cls-1" d="M433.81,123.63c-4.08-16.5-19.32-54.85-73.94-65.42,0,0-92.27-87.21-223.65-48.14-78.83,23.44-102.44,11.82-108.72-1.22-1.41-2.93-5.8-2.19-6.44,1-4.49,22.34-4.16,58.62,37.58,76.67,0,0-99.1,65.69-39.64,173.85l7.83-14.76v.85h37.54c-.78,4.76-1.06,9.69-.78,14.72,1.91,34.34,30.26,62.26,64.63,63.66,31.18,1.28,57.92-18.73,66.99-46.65,1.98-6.1,7.47-10.37,13.88-10.37h1.89c6.23,0,11.57,4.16,13.47,10.1,8.72,27.21,34.19,46.98,64.26,46.98,38.52,0,69.61-32.4,67.45-71.38-.13-2.39-.42-4.74-.8-7.06h24c4.24,5.46,8.55,10.22,12.83,13.91,0,0,54.87-51.53,7.9-140.44l27.97,9.01c3.34,1.08,6.6-1.91,5.76-5.32ZM71.49,225.51h-33.67c12.59-19.87,55.49-74.23,145.19-68.2,0,0-42.83,45.3-41.13,45.3,0,0,.04,0,.05,0l-7.44,8.28v-20.92c-1.15-.06-2.29-.18-3.46-.18-25.74,0-48.14,14.48-59.54,35.7ZM131.04,303.95c-25.69,0-46.6-20.9-46.6-46.6s20.9-46.6,46.6-46.6,46.59,20.9,46.59,46.6-20.9,46.6-46.59,46.6ZM288.72,303.95c-25.69,0-46.59-20.9-46.59-46.6s20.9-46.6,46.59-46.6,46.6,20.9,46.6,46.6-20.9,46.6-46.6,46.6ZM348.13,225.51c-11.07-20.39-32.3-34.65-56.59-35.65-34.93-1.43-64.27,23.84-69.47,57.02h-24.31c-2.67-17.08-11.79-32.03-24.74-42.35,40.42.19,110.71-8.01,152.36-62.51,0,0,17.65,46.76,39.8,83.49h-17.04Z"/>
      <circle class="cls-1" cx="131.03" cy="257.36" r="16.1"/>
      <circle class="cls-1" cx="288.72" cy="257.36" r="16.1"/>
    </g>
  </g>
</svg>