<?xml version="1.0" encoding="UTF-8"?>
<svg id="Layer_2" data-name="Layer 2" xmlns="http://www.w3.org/2000/svg" viewBox="0 0 618.32 94.13">
  <defs>
    <style>
      .cls-1 {
        fill: #777;
      }

      .cls-2 {
        fill: #1f1f1f;
      }
    </style>
  </defs>
  <g id="Layer_1-2" data-name="Layer 1">
    <g>
      <g>
        <g>
          <path class="cls-2" d="M184.38,26.77c-2.5-2.66-5.53-4.79-9.11-6.38-3.58-1.58-7.66-2.38-12.25-2.38s-8.67.79-12.25,2.38c-3.58,1.59-6.61,3.71-9.11,6.38-2.5,2.67-4.39,5.67-5.67,9.01-1.28,3.34-1.92,6.73-1.92,10.17v1.82c0,3.44.62,6.82,1.87,10.12,1.25,3.31,3.1,6.29,5.57,8.96,2.46,2.67,5.48,4.81,9.06,6.43,3.58,1.62,7.73,2.43,12.45,2.43s8.87-.81,12.45-2.43c3.58-1.62,6.6-3.76,9.06-6.43,2.46-2.66,4.32-5.65,5.57-8.96,1.25-3.31,1.87-6.68,1.87-10.12v-1.82c0-3.44-.64-6.83-1.92-10.17-1.28-3.34-3.17-6.34-5.67-9.01ZM179.98,57.09c-1.52,3.04-3.71,5.45-6.58,7.24-2.87,1.79-6.33,2.68-10.38,2.68s-7.51-.89-10.37-2.68c-2.87-1.79-5.06-4.2-6.58-7.24-1.52-3.04-2.28-6.44-2.28-10.22s.77-7.29,2.33-10.32c1.55-3.04,3.78-5.43,6.68-7.19,2.9-1.75,6.31-2.63,10.22-2.63s7.4.88,10.27,2.63c2.87,1.76,5.08,4.15,6.63,7.19,1.55,3.04,2.33,6.48,2.33,10.32s-.76,7.19-2.28,10.22Z"/>
          <path class="cls-2" d="M249.15,26.32c-2.29-2.56-5.05-4.59-8.25-6.07-3.21-1.48-6.77-2.23-10.68-2.23s-7.79.88-11.24,2.63c-3.44,1.76-6.22,4.47-8.35,8.15-.73,1.27-1.35,2.67-1.87,4.19v-13.15h-7.69v74.29h9.72v-28.37c2.21,3.37,4.94,5.85,8.2,7.42,3.51,1.69,7.19,2.53,11.03,2.53s7.37-.74,10.58-2.23c3.2-1.48,5.97-3.51,8.3-6.07,2.33-2.56,4.13-5.53,5.42-8.91,1.28-3.37,1.92-6.95,1.92-10.73v-1.82c0-3.78-.61-7.35-1.82-10.73-1.21-3.37-2.97-6.34-5.26-8.91ZM244.29,57.44c-1.49,3.07-3.58,5.47-6.28,7.19-2.7,1.72-5.87,2.58-9.51,2.58-3.17,0-6.14-.71-8.91-2.13-2.77-1.42-4.99-3.44-6.68-6.07-1.69-2.63-2.53-5.8-2.53-9.52v-4.66c0-3.85.83-7.14,2.48-9.87,1.65-2.73,3.86-4.82,6.63-6.28,2.77-1.45,5.77-2.18,9.01-2.18,3.64,0,6.81.86,9.51,2.58,2.7,1.72,4.79,4.1,6.28,7.14,1.48,3.04,2.23,6.58,2.23,10.63s-.74,7.51-2.23,10.58Z"/>
          <polygon class="cls-2" points="301.99 19.84 301.99 27.53 310.29 27.53 310.29 73.89 320.01 73.89 320.01 27.53 320.01 19.84 310.29 19.84 301.99 19.84"/>
          <path class="cls-2" d="M379.61,26.77c-2.5-2.66-5.53-4.79-9.11-6.38-3.58-1.58-7.66-2.38-12.25-2.38s-8.67.79-12.25,2.38c-3.58,1.59-6.61,3.71-9.11,6.38-2.5,2.67-4.39,5.67-5.67,9.01-1.28,3.34-1.92,6.73-1.92,10.17v1.82c0,3.44.62,6.82,1.87,10.12,1.25,3.31,3.1,6.29,5.57,8.96,2.46,2.67,5.48,4.81,9.06,6.43,3.58,1.62,7.73,2.43,12.45,2.43s8.87-.81,12.45-2.43c3.58-1.62,6.6-3.76,9.06-6.43,2.46-2.66,4.32-5.65,5.57-8.96,1.25-3.31,1.87-6.68,1.87-10.12v-1.82c0-3.44-.64-6.83-1.92-10.17-1.28-3.34-3.17-6.34-5.67-9.01ZM375.21,57.09c-1.52,3.04-3.71,5.45-6.58,7.24-2.87,1.79-6.33,2.68-10.38,2.68s-7.51-.89-10.37-2.68c-2.87-1.79-5.06-4.2-6.58-7.24-1.52-3.04-2.28-6.44-2.28-10.22s.77-7.29,2.33-10.32c1.55-3.04,3.78-5.43,6.68-7.19,2.9-1.75,6.31-2.63,10.22-2.63s7.4.88,10.27,2.63c2.87,1.76,5.08,4.15,6.63,7.19,1.55,3.04,2.33,6.48,2.33,10.32s-.76,7.19-2.28,10.22Z"/>
          <path class="cls-1" d="M427.9,17.21h-.61c-4.39,0-8.05.95-10.98,2.83-2.94,1.89-5.15,4.71-6.63,8.45-.49,1.23-.89,2.57-1.21,4v-13.57h-11.13v54.96h14.07v-32.29c0-3.51,1.06-6.34,3.19-8.5,2.13-2.16,4.91-3.24,8.35-3.24s5.94,1.05,7.9,3.14c1.96,2.09,2.94,4.83,2.94,8.2v32.69h14.07v-31.48c0-8.37-1.69-14.66-5.06-18.88-3.38-4.22-8.33-6.33-14.88-6.33Z"/>
          <path class="cls-1" d="M499.49,20.9c-4.02-2.6-8.99-3.9-14.93-3.9-4.52,0-8.52.79-11.99,2.38-3.48,1.59-6.36,3.71-8.65,6.38-2.29,2.67-4.03,5.7-5.21,9.11-1.18,3.41-1.77,6.93-1.77,10.58v1.92c0,3.51.59,6.95,1.77,10.32,1.18,3.38,2.94,6.43,5.26,9.16,2.33,2.73,5.26,4.91,8.81,6.53,3.54,1.62,7.68,2.43,12.4,2.43s8.55-.78,12.1-2.33c3.54-1.55,6.46-3.75,8.76-6.58,2.29-2.83,3.85-6.14,4.66-9.92h-13.06c-.61,2.02-1.99,3.73-4.15,5.11-2.16,1.38-4.93,2.07-8.3,2.07s-6.28-.76-8.5-2.28c-2.23-1.52-3.88-3.61-4.96-6.28-.71-1.74-1.18-3.65-1.42-5.72h41.3v-5.16c0-4.86-1.01-9.4-3.04-13.61-2.02-4.22-5.05-7.62-9.06-10.22ZM470.52,41.2c.28-1.55.69-2.96,1.23-4.25,1.11-2.63,2.75-4.67,4.91-6.12,2.16-1.45,4.79-2.18,7.89-2.18s5.67.68,7.69,2.02c2.02,1.35,3.56,3.27,4.61,5.77.59,1.42,1.01,3.01,1.27,4.76h-27.61Z"/>
          <path class="cls-1" d="M536.87,24.34c-2.55,3.09-4.14,7.25-4.76,12.49v-17.9h-11.13v54.96h14.07v-28.54c0-4.79,1.3-8.47,3.9-11.03,2.6-2.56,6.26-3.85,10.98-3.85h3.85v-12.25h-2.02c-6.55,0-11.51,2.04-14.88,6.12Z"/>
          <path class="cls-1" d="M604.15,0v26.67c-1.8-2.88-4.1-5.12-6.88-6.68-3.31-1.85-7.12-2.78-11.44-2.78-3.91,0-7.46.73-10.63,2.18-3.17,1.45-5.91,3.46-8.2,6.02-2.29,2.57-4.05,5.57-5.26,9.01s-1.82,7.12-1.82,11.03v2.13c0,3.98.64,7.69,1.92,11.13,1.28,3.44,3.1,6.43,5.47,8.96,2.36,2.53,5.14,4.5,8.35,5.92,3.2,1.42,6.76,2.13,10.68,2.13,4.25,0,8.08-.93,11.49-2.78,3.41-1.86,6.16-4.66,8.25-8.4.37-.66.7-1.37,1.01-2.09v11.45h11.24V0h-14.17ZM604.56,48.08c0,3.24-.69,6.06-2.07,8.45-1.38,2.4-3.21,4.22-5.47,5.47-2.26,1.25-4.77,1.87-7.54,1.87-2.97,0-5.62-.71-7.95-2.13-2.33-1.42-4.17-3.42-5.52-6.02-1.35-2.6-2.02-5.65-2.02-9.16s.66-6.56,1.97-9.16c1.32-2.6,3.14-4.64,5.47-6.12,2.33-1.48,5.01-2.23,8.05-2.23,2.63,0,5.09.59,7.39,1.77,2.29,1.18,4.15,2.88,5.57,5.11,1.42,2.23,2.13,4.93,2.13,8.1v4.05Z"/>
          <circle class="cls-2" cx="314.82" cy="6.32" r="6.32"/>
          <path class="cls-2" d="M274.49,19.84V0h-9.31v55.47c0,4.79.79,8.59,2.38,11.39,1.58,2.8,3.85,4.77,6.78,5.92,2.94,1.15,6.43,1.72,10.48,1.72h8.3v-8.7h-9.51c-2.9,0-5.15-.79-6.73-2.38-1.59-1.58-2.38-3.83-2.38-6.73v-29.15h18.62v-7.69h-18.62Z"/>
        </g>
        <path class="cls-2" d="M118.67,33.82c-1.11-4.51-5.28-15-20.23-17.9,0,0-25.24-23.86-61.18-13.17-21.56,6.41-28.02,3.23-29.74-.33-.39-.8-1.59-.6-1.76.27-1.23,6.11-1.14,16.04,10.28,20.98,0,0-27.11,17.97-10.84,47.56l2.14-4.04v.23h10.27c-.21,1.3-.29,2.65-.21,4.03.52,9.39,8.28,17.03,17.68,17.42,8.53.35,15.84-5.12,18.33-12.76.54-1.67,2.04-2.84,3.8-2.84h.52c1.71,0,3.16,1.14,3.68,2.76,2.38,7.44,9.35,12.85,17.58,12.85,10.54,0,19.04-8.86,18.45-19.53-.04-.65-.12-1.3-.22-1.93h6.57c1.16,1.49,2.34,2.8,3.51,3.81,0,0,15.01-14.1,2.16-38.42l7.65,2.47c.91.29,1.8-.52,1.57-1.45ZM19.56,61.69h-9.21c3.45-5.44,15.18-20.31,39.72-18.66,0,0-11.72,12.39-11.25,12.39,0,0,.01,0,.01,0l-2.03,2.27v-5.72c-.32-.02-.63-.05-.95-.05-7.04,0-13.17,3.96-16.29,9.77ZM35.85,83.15c-7.03,0-12.75-5.72-12.75-12.75s5.72-12.75,12.75-12.75,12.75,5.72,12.75,12.75-5.72,12.75-12.75,12.75ZM78.98,83.15c-7.03,0-12.75-5.72-12.75-12.75s5.72-12.75,12.75-12.75,12.75,5.72,12.75,12.75-5.72,12.75-12.75,12.75ZM95.23,61.69c-3.03-5.58-8.84-9.48-15.48-9.75-9.55-.39-17.58,6.52-19.01,15.6h-6.65c-.73-4.67-3.22-8.76-6.77-11.58,11.06.05,30.29-2.19,41.68-17.1,0,0,4.83,12.79,10.89,22.84h-4.66Z"/>
      </g>
      <circle class="cls-2" cx="35.85" cy="70.4" r="4.4"/>
      <circle class="cls-2" cx="78.98" cy="70.4" r="4.4"/>
    </g>
  </g>
</svg>